<svg xmlns="http://www.w3.org/2000/svg" xmlns:xlink="http://www.w3.org/1999/xlink" viewBox="0 0 1564.81 286.06"><defs><style>.cls-1{fill:none;}.cls-2{fill:#fff;}.cls-3{fill:#fac07c;}.cls-4{clip-path:url(#clip-path);}.cls-5{fill:#f9dfc6;}.cls-6{fill:#afc65a;}.cls-7{fill:#879c3e;}.cls-8{fill:#bfcf72;}.cls-9{fill:#c9cf89;}.cls-10{fill:#dce5af;}.cls-11{clip-path:url(#clip-path-2);}.cls-12{fill:#62c6f1;}.cls-13{fill:#a2c43d;}.cls-14{fill:#eb9cb4;}.cls-15{fill:#d14b76;}.cls-16{fill:#814d2f;}.cls-17{fill:#fcd400;}.cls-18{fill:#fafafb;}.cls-19{fill:#e7800e;}.cls-20{fill:#a72d58;}.cls-21{fill:#da7199;}.cls-22{fill:#d687ac;}.cls-23{fill:#eebed5;}.cls-24{fill:#fcf4ec;}</style><clipPath id="clip-path"><rect id="SVGID" class="cls-1" x="1237.07" y="1.15" width="188.08" height="188.07"/></clipPath><clipPath id="clip-path-2"><rect id="SVGID-2" data-name="SVGID" class="cls-1" x="1214.16" y="8.51" width="201.83" height="198.02"/></clipPath></defs><g id="Layer_2" data-name="Layer 2"><g id="Layer_1-2" data-name="Layer 1"><path class="cls-2" d="M837.87,95.47c-.07-13.55-6.41-21.25-17-21.17-10.25.07-16.05,7.46-16.07,20.78l0,110.51c0,13.37,5.88,20.64,16.28,20.58s16.67-7.46,16.89-20.33Z"/><path class="cls-2" d="M650.94,122.35c-10.82,30.91-20.81,59.34-30.73,87.78-2.39,6.8-5.5,13-12.92,15.36-9.38,3-18.85-1.2-22.7-11.18Q561.78,154.93,539.74,95.2a15.21,15.21,0,0,1,9-19.52c8.74-3.34,18.09.67,21.66,10.33,7.58,20.52,14.57,41.25,21.77,61.9,2.95,8.43,5.84,16.9,9.38,27.13,5.13-14.43,9.79-27.36,14.33-40.34,5-14.39,9.9-28.84,14.9-43.22,3.26-9.32,9.14-15,19.77-15.09,11-.14,17.23,5.41,20.63,15.24q13.34,38.52,26.73,77c.52,1.49,1.21,2.9,2.56,6.14,9.69-28,18.78-54.4,27.91-80.73,1-2.81,1.94-5.65,3.14-8.38,4.17-9.43,13.23-13.46,21.9-9.88,8.21,3.39,11.66,12,8.06,21.61Q742.41,148.67,723,199.75c-1.4,3.72-2.87,7.41-4.2,11.15-3.12,8.81-8.16,15.13-18.5,15.22-10.55.08-15.21-6.68-18.26-15.4q-11-31.44-22-62.86c-2.69-7.76-5.51-15.53-9.07-25.51"/><path class="cls-2" d="M1014.85,140c-1.21-34.46-27.6-62.83-59.67-65.39C919.76,71.78,890.89,93.18,883,128c-3.34,14.79-1.57,29.78-2.06,41.7,0,15.28-.31,27.59.08,39.83.32,9.76,7.34,16.32,16.48,16.45s15.83-6.39,16.25-16.42c.32-7.62,0-15.27.22-22.91.43-17.25-1.62-34.6,1-51.74,2.27-14.93,14.45-25.64,29.1-27.11,16-1.58,29.91,6.75,35.77,21.25,2.06,5.09,2.13,10.35,2.14,15.66,0,21.26-.2,42.53.12,63.79.17,10.7,7.15,17.6,16.46,17.52,10-.09,16.51-7.1,16.54-18.3,0-22.59.52-45.2-.27-67.76"/><path class="cls-2" d="M1156.52,197c-15-16.42-29.88-33-45.48-48.88-5.92-6-5.43-9.31.48-14.78,11-10.15,21.39-20.9,31.44-31.95,6.46-7.1,5.78-16.57-.37-22.5s-15.39-5.79-22.41.72c-4.15,3.83-7.77,8.21-11.92,12-10.59,9.81-21.36,19.46-31.16,28.34,0-24.29.09-50.5,0-76.7-.07-13.54-6.41-21.22-17-21.14-10.24.06-16,7.45-16,20.75q-.06,81.21,0,162.44c0,13.36,5.87,20.62,16.26,20.56s16.65-7.46,16.87-20.3c0-1.56,0-3.11,0-4.65l0-1.17V156.65c18,19.57,38.11,41.52,56.1,61.06,8.57,9.29,17.72,10.86,25,4.47,7.61-6.64,7.14-15.51-1.73-25.2"/><path class="cls-2" d="M837.93,38.64A16.63,16.63,0,1,1,821.3,22a16.63,16.63,0,0,1,16.63,16.62"/><path class="cls-3" d="M1317.38,0a108.91,108.91,0,1,0,108.91,108.91A108.91,108.91,0,0,0,1317.38,0m0,149.61a40.7,40.7,0,1,1,40.7-40.7,40.7,40.7,0,0,1-40.7,40.7"/><g class="cls-4"><path class="cls-5" d="M1311.86,155.13a40.7,40.7,0,0,1-26.51-71.58,40.71,40.71,0,0,0,57.4,57.4,40.65,40.65,0,0,1-30.89,14.18"/><path class="cls-5" d="M1420.77,114.43a108.9,108.9,0,0,0-183.7-79.16,108.9,108.9,0,1,1,154,154,108.48,108.48,0,0,0,29.75-74.79"/></g><path class="cls-6" d="M1221.57,73.16c-3.94,11-7.88,20.78-6,27.89,2.43,9.13,7.7,15.29,7.1,24.59-.89,13.43-1.68,33.33,8.88,43.57,13.09,12.71,26,22.71,38.47,29.72,1.89,1.07,3.75,2.19,5.72,3.37,9.5,5.72,20.27,12.2,34.91,12.2a55.63,55.63,0,0,0,11.22-1.19c5.15-1.06,10.56-1.95,15.8-2.81,18.91-3.12,38.46-6.34,48.77-18,6.77-7.7,9.62-14.24,12.37-20.58,2.47-5.68,4.8-11.06,9.88-16.62,7.76-8.51,11.18-21.64,9.73-35.5-.63-6.08-3.1-11.88-3-18,.11-6.45-1.78-12.65-.71-18.21,2.14-11.16,0-21.29-8.28-30.07-11.26-11.93-13.68-17.3-21.78-20.62-10-4.07-15.86-13.88-24.91-19.33-21.13-12.7-48.59-5.84-70.71.16-7,1.88-11.19,2.72-14.29,3.33-6,1.18-7.61,1.51-15.58,6.9-6.54,4.42-10.86,8.54-11,12.72-.47,11.4-9.37,10.09-17.58,15.34-6.36,4.07-6.47,14.15-9,21.14m51.62,39.91c-1.67-7.79-3-14.74-1.78-21,1.33-7,5.59-12.2,13.42-16.19l4.76-2.44c10.56-5.39,11.19-5.72,23.16-12.27a11.78,11.78,0,0,1,5.77-1.43c11.23,0,20,9.9,29,15.07a49.37,49.37,0,0,1,4.7,3,34.75,34.75,0,0,1,6.66,6.61c2.17,2.8,3.1,5.75,3.95,9.14.43,1.72,1,3.41,1.47,5.1,2.43,8,5.46,18-.06,25.46A207.45,207.45,0,0,1,1347,144.26c-5.64,5.88-12.57,11.11-21.1,11.11a120.21,120.21,0,0,1-12-.85c-18.47-1.92-29.79-7.22-32.73-15.32-.6-1.64-1.15-3.07-1.68-4.45-2-5.15-3.71-9.6-6.3-21.68"/><path class="cls-7" d="M1367.26,116.3c.65-5.84-1.28-12.17-2.93-17.6-.51-1.7-1-3.4-1.47-5.11-.84-3.39-1.77-6.35-3.95-9.14a34.69,34.69,0,0,0-6.65-6.61,49.37,49.37,0,0,0-4.7-3c-9.08-5.17-17.81-15.07-29-15.07a11.85,11.85,0,0,0-5.78,1.43c-4.61,2.53-7.53,4.13-10,5.45-.55-1.74.41-6.73,11.76-11.11,11.6-4.5,11.1,1,20,4.86s10.1,6.24,12.85,9.11,11.36,8.73,16.35,13.22,6.11,12,5,15.84,3.22,9.73,3.36,12.6c.13,2.5-4.67,5.36-4.76,5.15"/><path class="cls-7" d="M1248.14,36.68c-.2,4.86-1.93,7.4-4.49,9.14a12.53,12.53,0,0,0,1.75-6.4c.12-2.8,2.11-5.59,5.38-8.45a9.67,9.67,0,0,0-2.64,5.71"/><path class="cls-7" d="M1218.82,75.91c2.48-6.89,2.63-16.77,8.7-20.95-3.45,4.88-3.92,12.55-6,18.2-3.94,11-7.88,20.78-6,27.89,2.43,9.13,7.7,15.29,7.09,24.59-.88,13.43-1.67,33.33,8.89,43.57,13.09,12.71,26,22.71,38.48,29.72,1.88,1.07,3.75,2.19,5.71,3.38,9.5,5.71,20.27,12.19,34.91,12.19a55.8,55.8,0,0,0,11.23-1.19c5.13-1.06,10.55-1.95,15.79-2.81,17.38-2.87,35.31-5.83,46.09-15.38a.27.27,0,0,1-.07.08c-10.3,11.7-29.86,14.92-48.77,18-5.23.86-10.65,1.75-15.79,2.81a55,55,0,0,1-11.22,1.19c-14.64,0-25.41-6.48-34.91-12.19-2-1.19-3.83-2.31-5.72-3.37-12.44-7-25.38-17-38.48-29.72-10.55-10.25-9.76-30.15-8.88-43.58.61-9.3-4.67-15.46-7.09-24.58-1.89-7.11,2-16.94,6-27.89"/><path class="cls-8" d="M1406.08,157.19s7.24-31.94,5.24-44.67.25-40.66-1.74-46.15-11.23-15.72-17.22-21.21-15.47-9.48-19.21-13.72-15.22-17.72-22.46-19.21S1320,11,1309.77,13s-34.18,7.23-40.92,8.73c0,0,10,14,22.71,10.23s39.67-4,54.39,1.49,17,25.7,26,34.19,16.47,15,21,37.17,9,46.91,13.22,52.4"/><path class="cls-9" d="M1268.86,21.71s6.73.5,18.21-2.25,28.19-6.48,41.67-6.73,26.94,3.24,33.18,10,10.23,14.22,18.22,16,12.22,15.47,19.71,17.72,4,14.22,5.74,22.2,1.25,17.47,2.24,24.7,2.75,23,.25,31.44c-2.44,8.31-2.24,18.74-2,22.44-.87,1.85-3.24-12.71-.74-21.19s.75-24.21-.25-31.44-.5-16.72-2.25-24.7,1.75-20-5.74-22.21-11.73-16-19.71-17.71-12-9.24-18.21-16S1339.47,13.73,1326,14s-30.2,4-41.67,6.73-15.07.72-15.47,1"/><path class="cls-10" d="M1406.08,157.19s10.48-15.72,9-25.7,0-16.22-2-25.2-1.75-23.45-.25-30.19,1.74-13.23-6.24-19.46-9.23-15.47-17.22-19-10-4.24-14.21-7.49-10.24-14-18.72-17.21-13.48-6.24-25.7-4.75-14.72,1-23.21,3-13.22,2.25-24.2,6.24-8.73.25-14.47,4.25c0,0,6.74.5,18.21-2.25s28.2-6.48,41.67-6.74,27,3.25,33.19,10,10.23,14.22,18.22,16,12.22,15.47,19.7,17.72,4,14.22,5.74,22.21,1.25,17.46,2.25,24.7,2.74,23,.24,31.44-2.24,19-2,22.45"/><path class="cls-8" d="M1355.56,142s3.12,7.24-2.88,16.72-20,15-29.69,14.47-27.19-6-37.17-7.48-22.46-8.74-25-18.47-7.74-20.71-7.24-30.69-5.24-24,3.75-31.44a47.33,47.33,0,0,1,20-9.36s-5.5,10.73-7.61,17.1c-2,6-.38,16.46.12,21.7s5.49,24.7,8,28,14.47,11,22.45,13.72,15,1.78,26,2.25c11.73.5,19.83-15.22,29.32-16.47"/><path class="cls-10" d="M1347,146.21c-3.75,3.49-9.73,9-14.48,10a38.83,38.83,0,0,1-17.21.25c-7.49-1.5-10.73-1-18.22-3.74s-13-4.49-15.22-8.23-3-5.75-4.73-12-4-11.48-5-17.71-2.75-10.24-2.25-16.47.5-5.49,1.25-9-4,8-3.24,15.22,2.74,18.22,5,25-1.25,14.46,9.73,20.2,19,10.73,29.43,10.48,24.21,5,30.2-3.24,4.74-10.73,4.74-10.73"/><path class="cls-9" d="M1268.91,103.67c.94,5.62,3.37,16.47,3.75,20.4s2.24,15.16,5.43,19.45,15.71,11.61,24.51,13.48,21.7,4.12,29,3.18c6.35-.81,11.71-8.27,15.45-13.28,0,1.2-.56,4.16-4.84,10-6,8.24-19.71,3-30.19,3.24s-18.47-4.74-29.45-10.47-7.48-13.48-9.73-20.22-4.24-17.71-5-25c-.45-4.35,1.09-10.26,2.23-13.5-.8,3.63-1.75,9.12-1.17,12.63"/><g class="cls-11"><path class="cls-7" d="M1365.9,43.6a1.41,1.41,0,0,0,2.78-.47l-2.52-14.94a1.4,1.4,0,1,0-2.77.46Z"/><path class="cls-7" d="M1372.59,102.45a1.41,1.41,0,1,0,2.76-.58L1372.24,87a1.41,1.41,0,0,0-2.76.58Z"/><path class="cls-7" d="M1382.69,121.55a1.42,1.42,0,0,0,0,2,1.4,1.4,0,0,0,2,0L1395.48,113a1.41,1.41,0,0,0-2-2Z"/><path class="cls-7" d="M1275.23,195.15a1.41,1.41,0,0,0,2.81,0l-.19-15.15a1.42,1.42,0,0,0-1.43-1.39A1.4,1.4,0,0,0,1275,180Z"/><path class="cls-7" d="M1215.41,112.87a1.41,1.41,0,1,0,.32,2.8l15.06-1.73a1.41,1.41,0,0,0-.32-2.81Z"/><path class="cls-7" d="M1240,50.56a1.41,1.41,0,0,0,1.33,2.49l13.35-7.18a1.41,1.41,0,0,0-1.34-2.49Z"/><path class="cls-7" d="M1396.54,81.5a1.41,1.41,0,0,0,2.53,1.23l6.6-13.65a1.41,1.41,0,0,0-2.54-1.22Z"/><path class="cls-7" d="M1348.74,59.05a1.41,1.41,0,1,0,.57,2.76l14.84-3.06a1.41,1.41,0,0,0-.57-2.76Z"/><path class="cls-7" d="M1341.16,157.48a1.41,1.41,0,1,0,1.21,2.54l13.7-6.48a1.41,1.41,0,0,0-1.21-2.55Z"/><path class="cls-7" d="M1329.84,198a1.41,1.41,0,0,0,2.8-.34l-1.82-15a1.4,1.4,0,1,0-2.79.33Z"/><path class="cls-7" d="M1254.52,141.82a1.41,1.41,0,0,0,2.74-.65l-3.5-14.75a1.41,1.41,0,0,0-2.74.65Z"/><path class="cls-7" d="M1383.18,66.73a1.4,1.4,0,1,0,2.53,1.22l6.6-13.64a1.41,1.41,0,0,0-2.54-1.23Z"/><path class="cls-7" d="M1376,66.49a1.41,1.41,0,1,0,2.82.11l.62-15.13a1.41,1.41,0,0,0-2.82-.12Z"/><path class="cls-7" d="M1339.93,62.52a1.41,1.41,0,0,0,2.6,1.1l5.86-14a1.41,1.41,0,1,0-2.59-1.09Z"/><path class="cls-7" d="M1332,204.58a1.41,1.41,0,1,0,2.59,1.09l5.87-14a1.41,1.41,0,0,0-2.6-1.08Z"/><path class="cls-7" d="M1287.63,190.78a1.41,1.41,0,0,0,2,2l10.81-10.62a1.41,1.41,0,1,0-2-2Z"/><path class="cls-7" d="M1238.57,90.34a1.41,1.41,0,0,0,2,2l10.81-10.62a1.41,1.41,0,0,0-2-2Z"/><path class="cls-7" d="M1397.05,145a1.4,1.4,0,1,0,2.07-1.9l-10.23-11.17a1.41,1.41,0,1,0-2.08,1.9Z"/><path class="cls-7" d="M1245.5,142.19a1.41,1.41,0,0,0,.8-2.7l-14.53-4.32a1.41,1.41,0,0,0-.8,2.71Z"/><path class="cls-7" d="M1366.15,150.47a1.4,1.4,0,1,0,2.8-.18l-.93-15.12a1.4,1.4,0,1,0-2.8.17Z"/><path class="cls-7" d="M1251.33,107.22a1.41,1.41,0,0,0,2.82,0L1253.94,92a1.41,1.41,0,0,0-1.43-1.38,1.39,1.39,0,0,0-1.38,1.42Z"/><path class="cls-7" d="M1303.56,203.65a1.41,1.41,0,1,0,1.83,2.14l11.5-9.87a1.41,1.41,0,0,0-1.83-2.14Z"/><path class="cls-7" d="M1234.25,166.38a1.41,1.41,0,1,0,.9,2.67l14.36-4.83a1.41,1.41,0,1,0-.89-2.67Z"/><path class="cls-7" d="M1315.23,56.4a1.4,1.4,0,1,0,1.49,2.38l12.83-8.07a1.41,1.41,0,1,0-1.5-2.38Z"/><path class="cls-7" d="M1265.57,41.07a1.41,1.41,0,1,0,2.76-.56l-3-14.85a1.41,1.41,0,1,0-2.76.57Z"/><path class="cls-7" d="M1263.13,155.39a1.41,1.41,0,1,0,1,2.61l14.06-5.67a1.41,1.41,0,0,0-1.06-2.61Z"/><path class="cls-7" d="M1301.11,176.8a1.4,1.4,0,1,0,2.71-.73l-3.9-14.64a1.41,1.41,0,1,0-2.72.73Z"/><path class="cls-7" d="M1354.22,197.48a1.41,1.41,0,0,0,2.69-.86l-4.6-14.44a1.41,1.41,0,0,0-2.69.86Z"/><path class="cls-7" d="M1402.92,118.81a1.41,1.41,0,1,0,2,2L1415.59,110a1.41,1.41,0,0,0-2-2Z"/><path class="cls-7" d="M1365.44,171.71a1.41,1.41,0,1,0,1.81,2.16l11.61-9.74a1.41,1.41,0,0,0-1.81-2.16Z"/><path class="cls-7" d="M1393.13,155.52a1.41,1.41,0,1,0,1.78,2.18l11.73-9.59a1.41,1.41,0,0,0-1.78-2.18Z"/><path class="cls-7" d="M1226.71,83.5a1.41,1.41,0,0,0,1.56,2.34l12.62-8.39a1.41,1.41,0,0,0-1.56-2.35Z"/><path class="cls-7" d="M1311.69,42.83a1.41,1.41,0,0,0,2.8.35l1.86-15a1.41,1.41,0,0,0-2.79-.35Z"/><path class="cls-7" d="M1279.55,52.46a1.4,1.4,0,1,0-.84,2.68l14.46,4.53A1.41,1.41,0,0,0,1294,57Z"/><path class="cls-7" d="M1259.45,74.37a1.41,1.41,0,0,0,2.81-.23L1261,59a1.43,1.43,0,0,0-1.53-1.29,1.41,1.41,0,0,0-1.28,1.52Z"/><path class="cls-7" d="M1331,165a1.41,1.41,0,0,0,2.75-.61l-3.28-14.8a1.41,1.41,0,1,0-2.75.61Z"/></g><path class="cls-12" d="M1366.54,42.81a1.41,1.41,0,0,0,2.78-.47l-2.51-14.94a1.42,1.42,0,0,0-1.63-1.16,1.41,1.41,0,0,0-1.15,1.62Z"/><path class="cls-12" d="M1373.23,101.66a1.41,1.41,0,1,0,2.76-.58l-3.11-14.82a1.41,1.41,0,1,0-2.76.57Z"/><path class="cls-12" d="M1383.33,120.76a1.42,1.42,0,0,0,0,2,1.4,1.4,0,0,0,2,0l10.82-10.61a1.41,1.41,0,0,0-2-2Z"/><path class="cls-12" d="M1275.87,194.36a1.41,1.41,0,0,0,1.42,1.39,1.42,1.42,0,0,0,1.4-1.43l-.2-15.15a1.41,1.41,0,0,0-2.82,0Z"/><path class="cls-12" d="M1216.05,112.09a1.4,1.4,0,1,0,.33,2.79l15-1.74a1.4,1.4,0,1,0-.33-2.79Z"/><path class="cls-12" d="M1240.64,49.77a1.41,1.41,0,0,0,1.33,2.48l13.35-7.17A1.41,1.41,0,0,0,1254,42.6Z"/><path class="cls-13" d="M1397.18,80.71a1.41,1.41,0,0,0,2.54,1.23l6.59-13.65a1.41,1.41,0,1,0-2.54-1.22Z"/><path class="cls-13" d="M1349.38,58.26a1.43,1.43,0,0,0-1.1,1.67,1.4,1.4,0,0,0,1.66,1.09L1364.78,58a1.41,1.41,0,0,0,1.1-1.67,1.4,1.4,0,0,0-1.66-1.09Z"/><path class="cls-13" d="M1341.8,156.68a1.41,1.41,0,0,0,1.21,2.55l13.7-6.48a1.41,1.41,0,0,0-1.21-2.55Z"/><path class="cls-13" d="M1330.48,197.22a1.41,1.41,0,0,0,2.8-.34l-1.81-15a1.41,1.41,0,0,0-2.8.33Z"/><path class="cls-13" d="M1255.16,141a1.41,1.41,0,0,0,2.74-.66l-3.5-14.74a1.4,1.4,0,0,0-1.69-1,1.41,1.41,0,0,0-1,1.69Z"/><path class="cls-14" d="M1383.82,65.94a1.4,1.4,0,0,0,.65,1.88,1.42,1.42,0,0,0,1.89-.65L1393,53.52a1.41,1.41,0,0,0-2.54-1.22Z"/><path class="cls-15" d="M1376.6,65.7a1.41,1.41,0,1,0,2.82.12l.61-15.14a1.41,1.41,0,1,0-2.81-.12Z"/><path class="cls-15" d="M1340.57,61.73a1.41,1.41,0,0,0,2.6,1.1l5.86-14a1.41,1.41,0,0,0-2.59-1.09Z"/><path class="cls-15" d="M1332.6,203.79a1.41,1.41,0,0,0,2.6,1.09l5.86-14a1.41,1.41,0,1,0-2.6-1.08Z"/><path class="cls-15" d="M1288.27,190a1.41,1.41,0,0,0,2,2l10.81-10.62a1.41,1.41,0,0,0-2-2Z"/><path class="cls-15" d="M1239.21,89.55a1.41,1.41,0,0,0,2,2L1252,80.94a1.4,1.4,0,0,0-2-2Z"/><path class="cls-15" d="M1397.69,144.2a1.4,1.4,0,1,0,2.07-1.9l-10.23-11.17a1.41,1.41,0,0,0-2.08,1.9Z"/><path class="cls-15" d="M1246.14,141.4a1.41,1.41,0,0,0,.8-2.7l-14.53-4.32a1.41,1.41,0,0,0-.8,2.71Z"/><path class="cls-14" d="M1366.79,149.68a1.41,1.41,0,0,0,2.81-.17l-.94-15.13a1.4,1.4,0,1,0-2.8.17Z"/><path class="cls-14" d="M1252,106.43a1.41,1.41,0,1,0,2.82,0l-.21-15.15a1.41,1.41,0,0,0-2.81,0Z"/><path class="cls-14" d="M1304.2,202.86A1.41,1.41,0,1,0,1306,205l11.5-9.87a1.41,1.41,0,0,0-1.83-2.14Z"/><path class="cls-14" d="M1234.89,165.59a1.41,1.41,0,0,0,.9,2.67l14.36-4.83a1.42,1.42,0,0,0,.89-1.79,1.4,1.4,0,0,0-1.78-.88Z"/><path class="cls-16" d="M1316.75,55.54a1.42,1.42,0,0,0-.44,1.94,1.4,1.4,0,0,0,1.94.44l12.83-8.06a1.41,1.41,0,0,0-1.49-2.39Z"/><path class="cls-16" d="M1263.77,154.6a1.41,1.41,0,1,0,1,2.61l14-5.67a1.39,1.39,0,0,0,.78-1.83,1.41,1.41,0,0,0-1.83-.78Z"/><path class="cls-16" d="M1301.75,176a1.41,1.41,0,0,0,2.72-.73l-3.91-14.64a1.41,1.41,0,1,0-2.72.73Z"/><path class="cls-16" d="M1354.87,196.69a1.41,1.41,0,0,0,2.68-.86l-4.6-14.44a1.41,1.41,0,0,0-2.68.86Z"/><path class="cls-16" d="M1403.56,118a1.41,1.41,0,0,0,2,2l10.67-10.77a1.4,1.4,0,0,0-2-2Z"/><path class="cls-17" d="M1366.08,170.92a1.41,1.41,0,0,0,1.81,2.16l11.61-9.74a1.41,1.41,0,0,0-1.81-2.16Z"/><path class="cls-17" d="M1393.77,154.73a1.41,1.41,0,1,0,1.78,2.18l11.73-9.59a1.41,1.41,0,0,0-1.78-2.18Z"/><path class="cls-17" d="M1227.35,82.71a1.41,1.41,0,0,0,1.56,2.34l12.62-8.39a1.41,1.41,0,0,0-1.56-2.35Z"/><path class="cls-18" d="M1312.34,42a1.41,1.41,0,1,0,2.79.35l1.87-15a1.42,1.42,0,0,0-1.23-1.57A1.4,1.4,0,0,0,1314.2,27Z"/><path class="cls-18" d="M1280.19,51.67a1.41,1.41,0,0,0-.84,2.69l14.46,4.52a1.41,1.41,0,0,0,.84-2.69Z"/><path class="cls-18" d="M1260.09,73.59a1.41,1.41,0,0,0,2.81-.24l-1.26-15.11a1.41,1.41,0,0,0-2.81.24Z"/><path class="cls-18" d="M1331.64,164.24a1.41,1.41,0,1,0,2.75-.61l-3.28-14.8a1.4,1.4,0,0,0-1.67-1.07,1.41,1.41,0,0,0-1.08,1.68Z"/><path class="cls-17" d="M1328.31,162.16a2.54,2.54,0,0,0-5,1.08l5.81,26.73a2.54,2.54,0,1,0,5-1.08Z"/><path class="cls-19" d="M1343.56,218.69a2.54,2.54,0,1,0,.34-5.07l-27.29-1.83a2.54,2.54,0,0,0-.34,5.07Z"/><path class="cls-19" d="M1376.83,165a2.54,2.54,0,0,0-4.82,1.59l8.59,26a2.54,2.54,0,0,0,4.83-1.6Z"/><path class="cls-2" d="M1372.68,67.16a.63.63,0,0,0,0-.45v0a.58.58,0,0,0-.16-.14"/><path class="cls-2" d="M1372.48,66.55a2.47,2.47,0,0,0-1.83-.2,2.43,2.43,0,0,0-.78.36,1.57,1.57,0,0,0-.48.48,1.65,1.65,0,0,0-.21.68.62.62,0,0,0,.08.31c0,.07.15.06.29,0l0,0a3.61,3.61,0,0,1,.65-.61,1.92,1.92,0,0,1,2.2,0"/><path class="cls-3" d="M1564.81,141.49A113.52,113.52,0,1,0,1451.3,255a113.51,113.51,0,0,0,113.51-113.52m-155.94,0a42.43,42.43,0,1,1,42.43,42.42,42.42,42.42,0,0,1-42.43-42.42"/><path class="cls-5" d="M1403.12,147.24a42.42,42.42,0,0,0,74.61,27.64,42.42,42.42,0,0,1-59.82-59.82,42.28,42.28,0,0,0-14.79,32.18"/><path class="cls-5" d="M1445.54,33.73a113.51,113.51,0,0,1,82.51,191.47A113.51,113.51,0,1,0,1367.59,64.73a113.1,113.1,0,0,1,78-31"/><path class="cls-15" d="M1488.56,241.36c7.29-2.63,17.8-2.75,22-9.37,5.47-8.56,4.1-17.84,16-18.33,4.36-.18,8.65-4.69,13.26-11.51,5.62-8.3,6-10,7.19-16.24.63-3.23,1.5-7.64,3.47-14.89,6.25-23.05,13.4-51.67.16-73.7-5.67-9.44-15.89-15.58-20.14-26-3.45-8.45-9.06-11-21.49-22.71-9.15-8.64-19.71-10.85-31.34-8.62-5.8,1.1-12.26-.86-19-.74-6.34.1-12.38-2.46-18.72-3.12-14.44-1.51-28.13,2.06-37,10.14-5.81,5.3-11.4,7.72-17.33,10.3-6.6,2.87-13.42,5.83-21.45,12.89-12.19,10.74-15.55,31.12-18.79,50.83-.91,5.47-1.84,11.11-2.94,16.47a58.29,58.29,0,0,0-1.24,11.7c0,15.26,6.75,26.47,12.71,36.38,1.23,2.05,2.4,4,3.51,6,7.32,13,17.74,26.46,31,40.1,10.68,11,31.43,10.18,45.42,9.27,9.69-.64,16.11,4.86,25.63,7.39,7.4,2,17.65-2.13,29.07-6.24M1447,187.55c-12.59-2.69-17.23-4.48-22.6-6.56-1.44-.55-2.92-1.13-4.63-1.75-8.45-3.07-14-14.87-16-34.12-.53-5.12-.89-9.2-.89-12.54,0-8.9,5.46-16.11,11.59-22a220.07,220.07,0,0,1,21-18c7.76-5.75,18.17-2.59,26.53,0,1.77.54,3.53,1.08,5.33,1.53,3.52.89,6.61,1.85,9.52,4.12a36.23,36.23,0,0,1,6.89,6.94,47.38,47.38,0,0,1,3.14,4.9c5.4,9.47,15.71,18.56,15.71,30.26a12.49,12.49,0,0,1-1.48,6c-6.84,12.46-7.18,13.12-12.8,24.13l-2.53,5c-4.17,8.16-9.53,12.6-16.88,14-6.51,1.22-13.76-.12-21.88-1.86"/><path class="cls-20" d="M1443.59,89.5c6.08-.67,12.69,1.33,18.35,3,1.76.54,3.53,1.08,5.33,1.53,3.52.89,6.61,1.85,9.52,4.12a35.67,35.67,0,0,1,6.89,6.94,47.38,47.38,0,0,1,3.14,4.9c5.4,9.47,15.71,18.56,15.71,30.26a12.35,12.35,0,0,1-1.48,6c-2.64,4.8-4.3,7.85-5.68,10.41,1.8.57,7-.43,11.58-12.26,4.68-12.09-1-11.57-5.07-20.8s-6.5-10.54-9.49-13.4-9.1-11.83-13.79-17-12.48-6.37-16.51-5.2S1452,84.69,1449,84.54c-2.6-.13-5.59,4.87-5.37,5"/><path class="cls-20" d="M1485.7,244.22c7.17-2.59,17.47-2.75,21.82-9.07-5.08,3.6-13.07,4.09-19,6.21-11.42,4.11-21.66,8.2-29.07,6.24-9.52-2.53-15.94-8-25.63-7.39-14,.91-34.74,1.74-45.42-9.27-13.24-13.64-23.66-27.14-31-40.1-1.12-2-2.29-3.9-3.52-6-6-9.91-12.71-21.13-12.71-36.38a58.29,58.29,0,0,1,1.24-11.7c1.1-5.36,2-11,2.94-16.47,3-18.11,6.07-36.8,16-48l-.08.07c-12.2,10.75-15.56,31.12-18.8,50.83-.91,5.47-1.84,11.11-2.94,16.47a58.2,58.2,0,0,0-1.24,11.69c0,15.26,6.75,26.48,12.71,36.39,1.23,2,2.4,4,3.52,6,7.31,13,17.73,26.46,31,40.1,10.68,11,31.43,10.18,45.42,9.27,9.69-.64,16.12,4.86,25.62,7.39,7.42,2,17.66-2.13,29.08-6.24"/><path class="cls-21" d="M1401,49s33.28-7.54,46.54-5.46,42.4-.26,48.12,1.81,16.38,11.71,22.1,18,9.88,16.13,14.3,20,18.47,15.86,20,23.4,1.3,32-.78,42.65-7.54,35.63-9.1,42.65c0,0-14.57-10.4-10.67-23.67s4.17-41.34-1.55-56.69-26.79-17.68-35.63-27-15.6-17.16-38.75-21.84S1406.7,53.46,1401,49"/><path class="cls-22" d="M1542.18,192.07s-.52-7,2.34-19,6.76-29.38,7-43.43-3.39-28.08-10.41-34.58-14.82-10.67-16.64-19S1508.37,63.34,1506,55.53s-14.82-4.15-23.14-6-18.21-1.29-25.75-2.33-23.93-2.86-32.77-.27c-8.66,2.55-19.53,2.34-23.39,2.09-1.93.91,13.25,3.38,22.1.77s25.22-.78,32.77.27,17.42.52,25.74,2.34,20.8-1.82,23.14,6,16.65,12.22,18.46,20.54,9.63,12.48,16.65,19,10.66,20.54,10.4,34.59-4.16,31.46-7,43.43-.74,15.69-1,16.12"/><path class="cls-23" d="M1401,49s16.38-10.92,26.78-9.36,16.9,0,26.27,2.07,24.44,1.83,31.46.27,13.79-1.82,20.29,6.5,16.12,9.62,19.76,17.94,4.43,10.41,7.81,14.83,14.56,10.66,17.94,19.5,6.5,14,4.94,26.79-1,15.34-3.12,24.19-2.34,13.78-6.5,25.22-.26,9.1-4.42,15.08c0,0-.52-7,2.34-19s6.76-29.39,7-43.43-3.38-28.09-10.4-34.59-14.83-10.66-16.65-19S1508.38,63.34,1506,55.54s-14.82-4.16-23.15-6-18.2-1.3-25.74-2.34-23.93-2.86-32.77-.26S1404.61,49.3,1401,49"/><path class="cls-21" d="M1416.84,101.7s-7.55-3.25-17.43,3-15.6,20.8-15.08,30.95,6.24,28.35,7.8,38.75,9.1,23.4,19.25,26,21.58,8.07,32,7.55,25,5.46,32.77-3.91a49.37,49.37,0,0,0,9.76-20.8s-11.19,5.72-17.82,7.93c-6.21,2.07-17.17.39-22.63-.13s-25.74-5.72-29.12-8.32-11.44-15.09-14.3-23.41-1.86-15.6-2.35-27c-.52-12.22,15.87-20.67,17.17-30.56"/><path class="cls-23" d="M1412.42,110.67c-3.64,3.9-9.37,10.15-10.41,15.08a40.77,40.77,0,0,0-.26,17.95c1.57,7.8,1,11.19,3.91,19s4.68,13.53,8.58,15.87,6,3.12,12.48,4.94,12,4.16,18.46,5.2,10.67,2.86,17.17,2.34,5.72-.52,9.36-1.3-8.32,4.17-15.86,3.38-19-2.86-26-5.2-15.08,1.3-21.06-10.14-11.18-19.76-10.92-30.69-5.21-25.22,3.37-31.46,11.19-5,11.19-5"/><path class="cls-22" d="M1456.76,192c-5.85-1-17.17-3.51-21.26-3.9s-15.8-2.34-20.29-5.66-12.09-16.38-14-25.55-4.29-22.62-3.32-30.23c.85-6.62,8.63-12.2,13.85-16.11-1.25,0-4.33.6-10.47,5.06-8.58,6.24-3.12,20.54-3.38,31.46s5,19.25,10.93,30.69,14,7.8,21.06,10.14,18.47,4.42,26,5.2c4.54.47,10.69-1.13,14.06-2.32-3.77.83-9.49,1.83-13.15,1.22"/><path class="cls-20" d="M1397.23,66.78a4.64,4.64,0,0,1-1.43,2,3.37,3.37,0,0,1-4.48,1.25c-.84-.23-1.91-.24-2.48-.82s-.64-1.67-.86-2.49a5,5,0,0,1-.36-2.54,5,5,0,0,1,1.57-2,4.9,4.9,0,0,1,2.11-1.3,5.14,5.14,0,0,1,2.58-.28c.84.22,1.35,1.11,1.92,1.69a4.52,4.52,0,0,1,1.28,2.05,4.69,4.69,0,0,1,.15,2.47"/><path class="cls-20" d="M1429.28,44.12a4.45,4.45,0,0,1-2.4,2.61,4.4,4.4,0,0,1-3.46.75,5.32,5.32,0,0,1-3.3-2,5.42,5.42,0,0,1-.23-3.9,4.93,4.93,0,0,1,2.37-2.89,6.48,6.48,0,0,1,6.58,1.77,4.79,4.79,0,0,1,.44,3.65"/><path class="cls-20" d="M1381.6,128.17a5.2,5.2,0,0,1-2,3.26c-1.06.61-2.5.3-3.78,0a4.42,4.42,0,0,1-2.81-2.15,4.48,4.48,0,0,1-.5-3.52,4.26,4.26,0,0,1,2.33-2.57c1.07-.61,2.27-1.65,3.55-1.31s1.77,1.87,2.38,2.94a4.3,4.3,0,0,1,.82,3.39"/><path class="cls-20" d="M1517.34,105.64a4.17,4.17,0,0,1-5.9,3.4,4.76,4.76,0,0,1-2.82-2.31,4.56,4.56,0,0,1-.39-3.54,4.89,4.89,0,0,1,2-3.12c1.06-.61,2.33-.23,3.61.12a4.31,4.31,0,0,1,2.9,1.87,4.62,4.62,0,0,1,.61,3.58"/><path class="cls-20" d="M1469.84,74.62a4.63,4.63,0,0,1-1.95,3,4.57,4.57,0,0,1-3.55.08,4.27,4.27,0,0,1-2.8-2,4.39,4.39,0,0,1-.52-3.48c.34-1.28.83-2.65,1.9-3.26s2.42-.07,3.7.27a4,4,0,0,1,2.67,2,4.16,4.16,0,0,1,.55,3.36"/><path class="cls-20" d="M1510.3,75.26a4.47,4.47,0,0,1-2.35,2.67c-1.07.61-2.31,1.38-3.59,1a5.31,5.31,0,0,1-3-2.43,5,5,0,0,1-.3-3.77,4.52,4.52,0,0,1,2.42-2.65c1.07-.61,2.33-1.51,3.61-1.17s2.1,1.66,2.71,2.73a4.66,4.66,0,0,1,.53,3.59"/><path class="cls-20" d="M1533,157.73a4.31,4.31,0,0,1-1.94,2.86c-1.07.62-2.36,1.3-3.64.95a5.34,5.34,0,0,1-3-2.43,5,5,0,0,1-.07-3.72,4.56,4.56,0,0,1,2.1-2.9,4.49,4.49,0,0,1,3.54-.26,4.73,4.73,0,0,1,3.1,1.89c.61,1.07.3,2.33,0,3.61"/><path class="cls-20" d="M1387.7,172.11a5,5,0,0,1-2.59,2.76,5,5,0,0,1-3.68.83,5,5,0,0,1-2.77-2.56,5,5,0,0,1-.73-3.66,4.8,4.8,0,0,1,2.54-2.68,4.24,4.24,0,0,1,3.42-.24c1.29.34,2.53.69,3.15,1.76a5.26,5.26,0,0,1,.66,3.79"/><path class="cls-20" d="M1550.23,130.75c-.35,1.28-.58,2.71-1.64,3.31s-2.47.29-3.75-.05-2.67-.76-3.28-1.83a5.34,5.34,0,0,1-.36-3.87,5,5,0,0,1,2.39-2.92,4.69,4.69,0,0,1,3.62-.18,4.61,4.61,0,0,1,3,2c.62,1.06.36,2.26,0,3.54"/><path class="cls-20" d="M1398.47,90.79a3.36,3.36,0,0,1-1.14,2.17c-.69.4-1.61.07-2.44-.15a3.1,3.1,0,0,1-2-1.18,3.3,3.3,0,0,1-.3-2.44A3.44,3.44,0,0,1,1394,87.1a3.59,3.59,0,0,1,2.55-.3c.83.23,1.21,1.1,1.61,1.79a2.68,2.68,0,0,1,.35,2.2"/><path class="cls-20" d="M1464.85,48.16a2.85,2.85,0,0,1-1.56,1.7,2.88,2.88,0,0,1-2.24.49,3.48,3.48,0,0,1-2.15-1.3,3.58,3.58,0,0,1-.15-2.53,3.23,3.23,0,0,1,1.55-1.88,4.21,4.21,0,0,1,4.27,1.15,3.08,3.08,0,0,1,.28,2.37"/><path class="cls-20" d="M1433.83,74.26a3.43,3.43,0,0,1-1.3,2.11,3.37,3.37,0,0,1-2.46,0,2.92,2.92,0,0,1-1.82-1.4,2.87,2.87,0,0,1-.32-2.28,2.75,2.75,0,0,1,1.51-1.67c.69-.4,1.47-1.08,2.3-.86s1.15,1.22,1.55,1.91a2.84,2.84,0,0,1,.54,2.21"/><path class="cls-20" d="M1488.48,66.58a2.35,2.35,0,0,1-3.51,2,2.57,2.57,0,0,1-1.69-1.35,2.72,2.72,0,0,1-.45-2.18,3.27,3.27,0,0,1,1.24-2.11,3.49,3.49,0,0,1,2.51-.3,3.41,3.41,0,0,1,2,1.54,3.16,3.16,0,0,1-.09,2.39"/><path class="cls-20" d="M1512.41,160a2.48,2.48,0,0,1-3.57,2,2.73,2.73,0,0,1-1.81-1.29,2.87,2.87,0,0,1-.35-2.26,3.36,3.36,0,0,1,1.24-2.12c.69-.4,1.57,0,2.4.18a2.58,2.58,0,0,1,1.74,1.3,2.69,2.69,0,0,1,.35,2.18"/><path class="cls-20" d="M1389.85,153a3.09,3.09,0,0,1-5.87.67,3.21,3.21,0,0,1-.48-2.38,3.13,3.13,0,0,1,1.65-1.74,2.8,2.8,0,0,1,2.23-.15,3,3,0,0,1,2,1.14,3.39,3.39,0,0,1,.43,2.46"/><path class="cls-20" d="M1523.06,132c-.22.84-.37,1.76-1.06,2.16a3.27,3.27,0,0,1-2.44,0,3.34,3.34,0,0,1-2.13-1.18,3.5,3.5,0,0,1-.23-2.52,3.27,3.27,0,0,1,1.55-1.9,3,3,0,0,1,2.36-.11,3,3,0,0,1,1.94,1.29,2.91,2.91,0,0,1,0,2.3"/><path class="cls-20" d="M1391.32,112a3.08,3.08,0,0,1-.94,1.31,3.26,3.26,0,0,1-1.28,1,3.15,3.15,0,0,1-1.62-.18c-.55-.14-1.24-.16-1.62-.53a3.73,3.73,0,0,1-.56-1.61,3.32,3.32,0,0,1-.23-1.65,3.25,3.25,0,0,1,1-1.32,3,3,0,0,1,1.36-.85,3.38,3.38,0,0,1,1.67-.18c.55.15.89.72,1.26,1.1a2.93,2.93,0,0,1,.82,1.33,3,3,0,0,1,.11,1.6"/><path class="cls-20" d="M1445.77,59.55a2.87,2.87,0,0,1-1.55,1.69,2.9,2.9,0,0,1-2.25.49,3.51,3.51,0,0,1-2.15-1.29,3.55,3.55,0,0,1-.14-2.54,3.16,3.16,0,0,1,1.54-1.87,3,3,0,0,1,2.3,0,3,3,0,0,1,2,1.18,3.14,3.14,0,0,1,.27,2.38"/><path class="cls-20" d="M1533.51,90.61a2.74,2.74,0,0,1-1.26,1.85,3.2,3.2,0,0,1-2.36.62,3.52,3.52,0,0,1-2-1.58,3.2,3.2,0,0,1,0-2.42,2.92,2.92,0,0,1,1.36-1.88,2.87,2.87,0,0,1,2.29-.17,3.14,3.14,0,0,1,2,1.23,3.09,3.09,0,0,1,0,2.35"/><path class="cls-20" d="M1498.66,104.24a3,3,0,0,1-1.45,1.87,2.89,2.89,0,0,1-2.28.09,2.66,2.66,0,0,1-1.78-1.31c-.4-.7-1-1.51-.76-2.35a3.44,3.44,0,0,1,1.71-1.85,3,3,0,0,1,2.32,0,2.49,2.49,0,0,1,2.24,3.58"/><path class="cls-24" d="M1398.9,64.07a4.73,4.73,0,0,1-1.43,2,5,5,0,0,1-2,1.52,5.08,5.08,0,0,1-2.5-.28c-.84-.22-1.91-.24-2.48-.82s-.64-1.66-.86-2.48a4.92,4.92,0,0,1-.36-2.54,5,5,0,0,1,1.57-2,4.77,4.77,0,0,1,2.11-1.31,5.14,5.14,0,0,1,2.58-.28c.84.23,1.35,1.12,1.92,1.69a4.57,4.57,0,0,1,1.28,2.05,4.69,4.69,0,0,1,.15,2.47"/><path class="cls-24" d="M1430.94,41.41a4.44,4.44,0,0,1-2.39,2.62,4.46,4.46,0,0,1-3.46.74,5.36,5.36,0,0,1-3.31-2,5.5,5.5,0,0,1-.22-3.91,4.87,4.87,0,0,1,2.37-2.88,4.51,4.51,0,0,1,3.54-.06,4.61,4.61,0,0,1,3,1.82,4.78,4.78,0,0,1,.42,3.65"/><path class="cls-24" d="M1383.27,125.47a5.15,5.15,0,0,1-2,3.25c-1.07.62-2.5.31-3.78,0a4.67,4.67,0,0,1-3.31-5.67,4.25,4.25,0,0,1,2.33-2.56c1.07-.62,2.27-1.67,3.55-1.32s1.76,1.88,2.38,3a4.3,4.3,0,0,1,.82,3.39"/><path class="cls-24" d="M1513.59,183a4.65,4.65,0,0,1-1.81,3.09c-1.07.61-2.31.34-3.58,0a4,4,0,0,1-2.62-2.08,4.13,4.13,0,0,1-.69-3.36,5,5,0,0,1,1.9-3.24,5.35,5.35,0,0,1,3.87-.47,5.25,5.25,0,0,1,3.07,2.38c.62,1.07.21,2.4-.14,3.68"/><path class="cls-24" d="M1519,102.93a4.18,4.18,0,0,1-5.9,3.4,4.72,4.72,0,0,1-2.82-2.31,4.55,4.55,0,0,1-.39-3.54,4.89,4.89,0,0,1,2-3.12c1.06-.61,2.33-.22,3.61.12a4.29,4.29,0,0,1,2.9,1.88,4.59,4.59,0,0,1,.61,3.57"/><path class="cls-24" d="M1471.5,71.91a4.63,4.63,0,0,1-1.94,3A4.53,4.53,0,0,1,1466,75a4.14,4.14,0,0,1-2.79-2,4.37,4.37,0,0,1-.54-3.47c.35-1.28.84-2.65,1.91-3.27s2.42-.07,3.7.28a4,4,0,0,1,2.67,2,4.09,4.09,0,0,1,.54,3.35"/><path class="cls-24" d="M1512,72.55a4.47,4.47,0,0,1-2.35,2.67c-1.07.62-2.31,1.38-3.59,1a5.4,5.4,0,0,1-3-2.43,5.1,5.1,0,0,1-.29-3.78,4.55,4.55,0,0,1,2.42-2.65c1.07-.61,2.33-1.51,3.61-1.16s2.1,1.66,2.71,2.73a4.63,4.63,0,0,1,.53,3.58"/><path class="cls-24" d="M1534.67,155a4.23,4.23,0,0,1-1.93,2.86c-1.07.61-2.36,1.29-3.64.94a5.3,5.3,0,0,1-3-2.42,5,5,0,0,1-.07-3.72,4.55,4.55,0,0,1,2.09-2.9,4.5,4.5,0,0,1,3.54-.27,4.81,4.81,0,0,1,3.11,1.9c.62,1.07.3,2.33,0,3.61"/><path class="cls-24" d="M1389.37,169.41a5.11,5.11,0,0,1-2.59,2.76,4,4,0,0,1-6.45-1.74,4.88,4.88,0,0,1-.73-3.65,4.74,4.74,0,0,1,2.54-2.68,4.23,4.23,0,0,1,3.43-.24c1.28.34,2.52.69,3.14,1.75a5.28,5.28,0,0,1,.66,3.8"/><path class="cls-24" d="M1551.9,128c-.34,1.28-.58,2.71-1.65,3.32s-2.46.29-3.74-.06-2.67-.76-3.28-1.82a5.4,5.4,0,0,1-.37-3.87,5.09,5.09,0,0,1,2.4-2.93,4.74,4.74,0,0,1,3.62-.18,4.68,4.68,0,0,1,3,2,4.52,4.52,0,0,1,0,3.54"/><path class="cls-24" d="M1400.14,88.08a3.36,3.36,0,0,1-1.14,2.17,3.32,3.32,0,0,1-2.44-.15,3.11,3.11,0,0,1-2-1.18,3.3,3.3,0,0,1-.29-2.44,3.44,3.44,0,0,1,1.41-2.09,3.59,3.59,0,0,1,2.55-.29c.83.22,1.21,1.1,1.61,1.79a2.67,2.67,0,0,1,.35,2.19"/><path class="cls-24" d="M1466.52,45.46a2.83,2.83,0,0,1-1.56,1.69,2.88,2.88,0,0,1-2.24.49,3.47,3.47,0,0,1-2.15-1.29,3.56,3.56,0,0,1-.15-2.54,3.21,3.21,0,0,1,1.55-1.87,2.92,2.92,0,0,1,2.29,0,3,3,0,0,1,2,1.19,3.08,3.08,0,0,1,.28,2.37"/><path class="cls-24" d="M1435.49,71.55a2.49,2.49,0,0,1-3.75,2.09,2.93,2.93,0,0,1-1.83-1.39,3,3,0,0,1-.32-2.29,2.82,2.82,0,0,1,1.52-1.67c.69-.4,1.47-1.08,2.31-.85s1.14,1.22,1.54,1.91a2.77,2.77,0,0,1,.53,2.2"/><path class="cls-24" d="M1490.15,63.87a3,3,0,0,1-1.18,2,3,3,0,0,1-2.33,0,2.66,2.66,0,0,1-1.7-1.36,2.71,2.71,0,0,1-.44-2.18,3.32,3.32,0,0,1,1.23-2.1,3.52,3.52,0,0,1,2.52-.31,3.43,3.43,0,0,1,2,1.55,3.14,3.14,0,0,1-.09,2.38"/><path class="cls-24" d="M1514.08,157.34a3,3,0,0,1-1.26,1.95,2.93,2.93,0,0,1-2.31.05,2.76,2.76,0,0,1-1.82-1.29,2.91,2.91,0,0,1-.34-2.26,3.38,3.38,0,0,1,1.24-2.12c.69-.39,1.57,0,2.4.18a2.62,2.62,0,0,1,1.74,1.3,2.74,2.74,0,0,1,.35,2.19"/><path class="cls-24" d="M1391.52,150.28a3.29,3.29,0,0,1-1.69,1.79,3.21,3.21,0,0,1-2.39.54,3.26,3.26,0,0,1-1.79-1.67,3.19,3.19,0,0,1-.48-2.37,3.13,3.13,0,0,1,1.65-1.74,2.74,2.74,0,0,1,2.22-.16,3.09,3.09,0,0,1,2,1.14,3.43,3.43,0,0,1,.43,2.47"/><path class="cls-24" d="M1524.73,129.33c-.22.83-.38,1.76-1.07,2.16a5.06,5.06,0,0,1-4.56-1.23,3.48,3.48,0,0,1-.24-2.51,3.29,3.29,0,0,1,1.56-1.9,3.06,3.06,0,0,1,2.35-.12,3,3,0,0,1,2,1.3,2.91,2.91,0,0,1,0,2.3"/><path class="cls-24" d="M1393,109.32a3,3,0,0,1-.93,1.3,3.39,3.39,0,0,1-1.28,1,3.31,3.31,0,0,1-1.63-.18c-.54-.15-1.23-.16-1.61-.54s-.42-1.08-.56-1.61a2.15,2.15,0,0,1,.79-3,3.15,3.15,0,0,1,1.37-.84,3.27,3.27,0,0,1,1.67-.19c.55.15.89.72,1.26,1.1a2.9,2.9,0,0,1,.82,1.33,3,3,0,0,1,.1,1.61"/><path class="cls-24" d="M1447.44,56.84a3.8,3.8,0,0,1-3.8,2.18,3.43,3.43,0,0,1-2.15-1.29,3.53,3.53,0,0,1-.15-2.53,3.22,3.22,0,0,1,1.54-1.88,4.26,4.26,0,0,1,4.29,1.15,3.12,3.12,0,0,1,.27,2.37"/><path class="cls-24" d="M1535.18,87.9a2.82,2.82,0,0,1-1.26,1.86,3.24,3.24,0,0,1-2.36.61,3.47,3.47,0,0,1-2-1.57,3.25,3.25,0,0,1,0-2.42,3,3,0,0,1,1.36-1.88,2.86,2.86,0,0,1,2.3-.18,3.11,3.11,0,0,1,2,1.24,3.06,3.06,0,0,1,0,2.34"/><path class="cls-24" d="M1538,182.52a3.26,3.26,0,0,1-1.68,1.8,3.3,3.3,0,0,1-2.39.54,3.26,3.26,0,0,1-1.79-1.67,3.16,3.16,0,0,1-.48-2.38,3.1,3.1,0,0,1,1.65-1.74,2.78,2.78,0,0,1,2.22-.16,3.07,3.07,0,0,1,2,1.15,3.35,3.35,0,0,1,.43,2.46"/><path class="cls-24" d="M1500.33,101.53a3,3,0,0,1-1.45,1.87,2.85,2.85,0,0,1-2.28.09,2.66,2.66,0,0,1-1.78-1.31c-.4-.69-1-1.51-.76-2.34a3.44,3.44,0,0,1,1.71-1.85,3,3,0,0,1,2.32,0,2.48,2.48,0,0,1,2.24,3.57"/><path class="cls-14" d="M1520.29,72.07a1.23,1.23,0,1,1,2-1.39l7.46,11a1.23,1.23,0,1,1-2,1.38Z"/><path class="cls-2" d="M1538.62,90a.57.57,0,0,0,.21-.36v0a.67.67,0,0,0,0-.19"/><path class="cls-2" d="M1538.78,89.46a2.26,2.26,0,0,0-1.27-1.1,2.38,2.38,0,0,0-.78-.14,1.43,1.43,0,0,0-1.12.51.7.7,0,0,0-.1.29c0,.08.08.11.24.11h0a3.47,3.47,0,0,1,.79-.11,1.75,1.75,0,0,1,1.67,1.12"/><path class="cls-2" d="M54.4,183.49a41,41,0,0,0,21.69,7.17h1.36a42.56,42.56,0,0,0,20.92-5.37q6.85-4,14.8-14.36a18.1,18.1,0,0,1,11.22-8.06,15.48,15.48,0,0,1,4.18-.61A17.47,17.47,0,0,1,138,165,17.1,17.1,0,0,1,145.92,176a23.49,23.49,0,0,1,.44,4.49,17.43,17.43,0,0,1-2.69,9.28Q129.17,208.94,116,216.4a75,75,0,0,1-37.38,9.87,105.59,105.59,0,0,1-11.36-.61,76,76,0,0,1-44.55-22A78.17,78.17,0,0,1,6.57,180.21c-.31-.69-.61-1.38-.88-2.1s-.62-1.61-.89-2.38A81.19,81.19,0,0,1,0,148.65a78.18,78.18,0,0,1,6.13-30.06,73.51,73.51,0,0,1,28.7-34.25A86.66,86.66,0,0,1,77.75,71h2.69q21.07,0,39.93,13a83.47,83.47,0,0,1,28.7,34.24,3.14,3.14,0,0,0,.62,1.2.66.66,0,0,0,.13.44v.3l.14.15v.44a.36.36,0,0,1,.14.31v.13c.19.2.31.36.31.44V122c.11.11.13.3.13.61v.3h.14v.92a4.47,4.47,0,0,1,.14.88v3.58a.57.57,0,0,0-.14.44v.89c-.11.3-.19.64-.3,1v.14c0,.11-.11.2-.3.3v.45a.54.54,0,0,0-.15.44l-.13.45a.51.51,0,0,1-.14.3,1.34,1.34,0,0,1-.14.44l-.3.31v.14l-.15.44-.13.31-.14.3-.14.45c0,.1-.11.18-.31.3a1.27,1.27,0,0,1-.13.44l-.31.31-.13.3-.45.44-.14.31-.3.44c0,.11-.11.19-.31.3a2.26,2.26,0,0,0-.44.59l-.45.3-.3.31-.14.3-.13.14-.31.14-.31.31-.3.3a1.51,1.51,0,0,0-.44.3,4.67,4.67,0,0,0-.75.59l-.31.13a.35.35,0,0,1-.3.14,1.26,1.26,0,0,1-.61.14v.14l-.31.3a.66.66,0,0,0-.44.14.39.39,0,0,1-.31.14c-.1.11-.3.14-.6.14a.41.41,0,0,1-.31.14L49.36,179.44a23.06,23.06,0,0,0,5,4.05M83.71,107.4a46.66,46.66,0,0,0-6.56-.45q-21.71,0-34.09,18.54a39.4,39.4,0,0,0-7,20.78L105.85,118A39.78,39.78,0,0,0,83.71,107.4"/><path class="cls-2" d="M407.19,183.49a41,41,0,0,0,21.69,7.17h1.36a42.56,42.56,0,0,0,20.92-5.37q6.85-4,14.8-14.36a18.07,18.07,0,0,1,11.22-8.06,15.54,15.54,0,0,1,4.18-.61,17.47,17.47,0,0,1,9.42,2.69A17.1,17.1,0,0,1,498.71,176a24.33,24.33,0,0,1,.44,4.49,17.17,17.17,0,0,1-2.69,9.28Q482,208.94,468.81,216.4a75,75,0,0,1-37.38,9.87,105.59,105.59,0,0,1-11.36-.61,75.85,75.85,0,0,1-44.56-22,78.33,78.33,0,0,1-16.15-23.47c-.31-.69-.61-1.38-.88-2.1s-.62-1.61-.9-2.38a81.42,81.42,0,0,1-4.79-27.08,78.18,78.18,0,0,1,6.13-30.06,73.51,73.51,0,0,1,28.7-34.25A86.66,86.66,0,0,1,430.54,71h2.69q21.07,0,39.93,13a83.55,83.55,0,0,1,28.7,34.24,3.63,3.63,0,0,0,.62,1.2.66.66,0,0,0,.13.44v.3l.14.15v.44a.46.46,0,0,1,.14.31v.13c.19.2.31.36.31.44V122c.11.11.13.3.13.61v.3h.14v.92a3,3,0,0,1,.14.88v3.58a.57.57,0,0,0-.14.44v.89c-.11.3-.19.64-.3,1v.14c0,.11-.12.2-.3.3v.45a.54.54,0,0,0-.15.44l-.13.45a.51.51,0,0,1-.14.3,1.34,1.34,0,0,1-.14.44l-.31.31v.14l-.14.44-.13.31-.14.3-.14.45c0,.1-.11.18-.31.3a1.27,1.27,0,0,1-.13.44l-.31.31-.13.3-.45.44-.14.31-.3.44c0,.11-.11.19-.31.3a2.06,2.06,0,0,0-.44.59l-.45.3-.3.31-.14.3-.13.14-.31.14c-.11.11-.2.19-.31.31l-.3.3a1.51,1.51,0,0,0-.44.3,4.67,4.67,0,0,0-.75.59l-.31.13a.35.35,0,0,1-.3.14,1.24,1.24,0,0,1-.61.14v.14l-.31.3a.66.66,0,0,0-.44.14.38.38,0,0,1-.3.14.87.87,0,0,1-.61.14.41.41,0,0,1-.3.14l-90.48,36.77a23.34,23.34,0,0,0,5.05,4.05M436.5,107.4a46.76,46.76,0,0,0-6.56-.45q-21.7,0-34.09,18.54a39.5,39.5,0,0,0-7,20.78L458.64,118A39.78,39.78,0,0,0,436.5,107.4"/><path class="cls-2" d="M330.32,208.45a75.75,75.75,0,0,1-13.61,43.67,77.46,77.46,0,0,1-64,33.94,16.76,16.76,0,0,1-12.55-5.23,17.73,17.73,0,0,1,0-25.44,16.77,16.77,0,0,1,12.55-5.24,41.62,41.62,0,0,0,22.44-6.43,40.14,40.14,0,0,0,15.55-17.65l1.8-4.93,1.63-6.12v-.75a76.19,76.19,0,0,1-41.26,11.8h-.75A75.92,75.92,0,0,1,210,213.36q-24.81-16.31-33-47.55A67.38,67.38,0,0,1,175,148.6V88.8a18.37,18.37,0,0,1,17.93-17.92,18.11,18.11,0,0,1,18,17.92v59.8a41.7,41.7,0,0,0,41.4,41.84,43,43,0,0,0,15.84-3.13,40.79,40.79,0,0,0,22.72-21.39,42.27,42.27,0,0,0,3.58-17.35V88.77a18.37,18.37,0,0,1,17.93-17.92,16.85,16.85,0,0,1,12.71,5.37,17.13,17.13,0,0,1,5.24,12.55V208.45Z"/></g></g></svg>